<?xml version="1.0" encoding="UTF-8" standalone="no"?>
<!-- Created with Inkscape (http://www.inkscape.org/) -->

<svg
   xmlns:dc="http://purl.org/dc/elements/1.1/"
   xmlns:cc="http://creativecommons.org/ns#"
   xmlns:rdf="http://www.w3.org/1999/02/22-rdf-syntax-ns#"
   xmlns:svg="http://www.w3.org/2000/svg"
   xmlns="http://www.w3.org/2000/svg"
   xmlns:sodipodi="http://sodipodi.sourceforge.net/DTD/sodipodi-0.dtd"
   xmlns:inkscape="http://www.inkscape.org/namespaces/inkscape"
   width="180"
   height="40"
   viewBox="0 0 180 40.000001"
   id="svg4223"
   version="1.1"
   inkscape:version="0.91 r13725"
   sodipodi:docname="banner2.svg">
  <defs
     id="defs4225" />
  <sodipodi:namedview
     id="base"
     pagecolor="#ffffff"
     bordercolor="#666666"
     borderopacity="1.0"
     inkscape:pageopacity="0.0"
     inkscape:pageshadow="2"
     inkscape:zoom="3.959798"
     inkscape:cx="43.517217"
     inkscape:cy="5.7650486"
     inkscape:document-units="px"
     inkscape:current-layer="layer1"
     showgrid="false"
     units="px"
     inkscape:window-width="1236"
     inkscape:window-height="755"
     inkscape:window-x="46"
     inkscape:window-y="3"
     inkscape:window-maximized="0" />
  <metadata
     id="metadata4228">
    <rdf:RDF>
      <cc:Work
         rdf:about="">
        <dc:format>image/svg+xml</dc:format>
        <dc:type
           rdf:resource="http://purl.org/dc/dcmitype/StillImage" />
        <dc:title />
      </cc:Work>
    </rdf:RDF>
  </metadata>
  <g
     inkscape:label="Layer 1"
     inkscape:groupmode="layer"
     id="layer1"
     transform="translate(0,-1012.3622)">
    <g
       style="font-style:normal;font-weight:normal;font-size:40px;line-height:125%;font-family:sans-serif;letter-spacing:0px;word-spacing:0px;fill:#3b90e0;fill-opacity:1;stroke:none;stroke-width:1px;stroke-linecap:butt;stroke-linejoin:miter;stroke-opacity:1"
       id="text4231"
       transform="translate(0.25253813,0)">
      <path
         d="m 17.172594,1045.5437 0,-22.5 3.75,0 0,-3.75 7.5,0 0,3.75 3.75,0 0,11.25 3.75,0 0,-15 7.5,0 0,22.5 -3.75,0 0,3.75 -7.5,0 0,-3.75 -3.75,0 0,-11.25 -3.75,0 0,15 -7.5,0 z"
         style="font-style:normal;font-variant:normal;font-weight:normal;font-stretch:normal;font-size:30px;line-height:125%;font-family:'M50_VANILLA ICE';-inkscape-font-specification:'M50_VANILLA ICE, Normal';text-align:start;writing-mode:lr-tb;text-anchor:start;fill:#3b90e0;fill-opacity:1"
         id="path4987"
         inkscape:connector-curvature="0" />
      <path
         d="m 47.172594,1041.7937 0,-18.75 3.75,0 0,-3.75 18.75,0 0,3.75 3.75,0 0,18.75 -3.75,0 0,3.75 -18.75,0 0,-3.75 -3.75,0 z m 7.5,-3.75 11.25,0 0,-11.25 -11.25,0 0,11.25 z"
         style="font-style:normal;font-variant:normal;font-weight:normal;font-stretch:normal;font-size:30px;line-height:125%;font-family:'M50_VANILLA ICE';-inkscape-font-specification:'M50_VANILLA ICE, Normal';text-align:start;writing-mode:lr-tb;text-anchor:start;fill:#3b90e0;fill-opacity:1"
         id="path4989"
         inkscape:connector-curvature="0" />
      <path
         d="m 77.172594,1041.7937 0,-18.75 3.75,0 0,-3.75 18.75,0 0,3.75 3.749996,0 0,15 -3.749996,0 0,3.75 -3.75,0 0,3.75 -15,0 0,-3.75 -3.75,0 z m 22.5,3.75 0,-3.75 3.749996,0 0,3.75 -3.749996,0 z m -3.75,-18.75 -11.25,0 0,11.25 7.5,0 0,-3.75 3.75,0 0,-7.5 z"
         style="font-style:normal;font-variant:normal;font-weight:normal;font-stretch:normal;font-size:30px;line-height:125%;font-family:'M50_VANILLA ICE';-inkscape-font-specification:'M50_VANILLA ICE, Normal';text-align:start;writing-mode:lr-tb;text-anchor:start;fill:#3b90e0;fill-opacity:1"
         id="path4991"
         inkscape:connector-curvature="0" />
      <path
         d="m 107.17259,1041.7937 0,-18.75 3.75,0 0,-3.75 18.75,0 0,3.75 3.75,0 0,15 -3.75,0 0,3.75 -3.75,0 0,3.75 -15,0 0,-3.75 -3.75,0 z m 22.5,3.75 0,-3.75 3.75,0 0,3.75 -3.75,0 z m -3.75,-18.75 -11.25,0 0,11.25 7.5,0 0,-3.75 3.75,0 0,-7.5 z"
         style="font-style:normal;font-variant:normal;font-weight:normal;font-stretch:normal;font-size:30px;line-height:125%;font-family:'M50_VANILLA ICE';-inkscape-font-specification:'M50_VANILLA ICE, Normal';text-align:start;writing-mode:lr-tb;text-anchor:start;fill:#3b90e0;fill-opacity:1"
         id="path4993"
         inkscape:connector-curvature="0" />
      <path
         d="m 140.92259,1045.5437 0,-3.75 -3.75,0 0,-18.75 3.75,0 0,-3.75 22.5,0 0,7.5 -18.75,0 0,3.75 15,0 0,3.75 -15,0 0,3.75 18.75,0 0,7.5 -22.5,0 z"
         style="font-style:normal;font-variant:normal;font-weight:normal;font-stretch:normal;font-size:30px;line-height:125%;font-family:'M50_VANILLA ICE';-inkscape-font-specification:'M50_VANILLA ICE, Normal';text-align:start;writing-mode:lr-tb;text-anchor:start;fill:#3b90e0;fill-opacity:1"
         id="path4995"
         inkscape:connector-curvature="0" />
    </g>
    <g
       style="font-style:normal;font-weight:normal;font-size:40px;line-height:125%;font-family:sans-serif;letter-spacing:0px;word-spacing:0px;fill:#ffffff;fill-opacity:1;stroke:none;stroke-width:1px;stroke-linecap:butt;stroke-linejoin:miter;stroke-opacity:1"
       id="text4231-9">
      <path
         d="m 15.263348,1043.2639 0,-22.5 3.75,0 0,-3.75 7.5,0 0,3.75 3.75,0 0,11.25 3.75,0 0,-15 7.5,0 0,22.5 -3.75,0 0,3.75 -7.5,0 0,-3.75 -3.75,0 0,-11.25 -3.75,0 0,15 -7.5,0 z"
         style="font-style:normal;font-variant:normal;font-weight:normal;font-stretch:normal;font-size:30px;line-height:125%;font-family:'M50_VANILLA ICE';-inkscape-font-specification:'M50_VANILLA ICE, Normal';text-align:start;writing-mode:lr-tb;text-anchor:start;fill:#ffffff;fill-opacity:1"
         id="path4998" />
      <path
         d="m 45.263348,1039.5139 0,-18.75 3.75,0 0,-3.75 18.75,0 0,3.75 3.75,0 0,18.75 -3.75,0 0,3.75 -18.75,0 0,-3.75 -3.75,0 z m 7.5,-3.75 11.25,0 0,-11.25 -11.25,0 0,11.25 z"
         style="font-style:normal;font-variant:normal;font-weight:normal;font-stretch:normal;font-size:30px;line-height:125%;font-family:'M50_VANILLA ICE';-inkscape-font-specification:'M50_VANILLA ICE, Normal';text-align:start;writing-mode:lr-tb;text-anchor:start;fill:#ffffff;fill-opacity:1"
         id="path5000" />
      <path
         d="m 75.263348,1039.5139 0,-18.75 3.75,0 0,-3.75 18.75,0 0,3.75 3.750002,0 0,15 -3.750002,0 0,3.75 -3.75,0 0,3.75 -15,0 0,-3.75 -3.75,0 z m 22.5,3.75 0,-3.75 3.750002,0 0,3.75 -3.750002,0 z m -3.75,-18.75 -11.25,0 0,11.25 7.5,0 0,-3.75 3.75,0 0,-7.5 z"
         style="font-style:normal;font-variant:normal;font-weight:normal;font-stretch:normal;font-size:30px;line-height:125%;font-family:'M50_VANILLA ICE';-inkscape-font-specification:'M50_VANILLA ICE, Normal';text-align:start;writing-mode:lr-tb;text-anchor:start;fill:#ffffff;fill-opacity:1"
         id="path5002" />
      <path
         d="m 105.26335,1039.5139 0,-18.75 3.75,0 0,-3.75 18.75,0 0,3.75 3.75,0 0,15 -3.75,0 0,3.75 -3.75,0 0,3.75 -15,0 0,-3.75 -3.75,0 z m 22.5,3.75 0,-3.75 3.75,0 0,3.75 -3.75,0 z m -3.75,-18.75 -11.25,0 0,11.25 7.5,0 0,-3.75 3.75,0 0,-7.5 z"
         style="font-style:normal;font-variant:normal;font-weight:normal;font-stretch:normal;font-size:30px;line-height:125%;font-family:'M50_VANILLA ICE';-inkscape-font-specification:'M50_VANILLA ICE, Normal';text-align:start;writing-mode:lr-tb;text-anchor:start;fill:#ffffff;fill-opacity:1"
         id="path5004" />
      <path
         d="m 139.01335,1043.2639 0,-3.75 -3.75,0 0,-18.75 3.75,0 0,-3.75 22.5,0 0,7.5 -18.75,0 0,3.75 15,0 0,3.75 -15,0 0,3.75 18.75,0 0,7.5 -22.5,0 z"
         style="font-style:normal;font-variant:normal;font-weight:normal;font-stretch:normal;font-size:30px;line-height:125%;font-family:'M50_VANILLA ICE';-inkscape-font-specification:'M50_VANILLA ICE, Normal';text-align:start;writing-mode:lr-tb;text-anchor:start;fill:#ffffff;fill-opacity:1"
         id="path5006" />
    </g>
  </g>
</svg>
