<?xml version="1.0" encoding="UTF-8" standalone="no"?>
<!-- Created with Inkscape (http://www.inkscape.org/) -->

<svg
   xmlns:dc="http://purl.org/dc/elements/1.1/"
   xmlns:cc="http://creativecommons.org/ns#"
   xmlns:rdf="http://www.w3.org/1999/02/22-rdf-syntax-ns#"
   xmlns:svg="http://www.w3.org/2000/svg"
   xmlns="http://www.w3.org/2000/svg"
   xmlns:sodipodi="http://sodipodi.sourceforge.net/DTD/sodipodi-0.dtd"
   xmlns:inkscape="http://www.inkscape.org/namespaces/inkscape"
   width="300"
   height="300"
   viewBox="0 0 300 300"
   id="svg2"
   version="1.1"
   inkscape:version="0.91 r13725"
   sodipodi:docname="logo_square.svg">
  <defs
     id="defs4" />
  <sodipodi:namedview
     id="base"
     pagecolor="#ffffff"
     bordercolor="#666666"
     borderopacity="1.0"
     inkscape:pageopacity="0.0"
     inkscape:pageshadow="2"
     inkscape:zoom="0.98994949"
     inkscape:cx="105.45074"
     inkscape:cy="109.54613"
     inkscape:document-units="px"
     inkscape:current-layer="layer1"
     showgrid="false"
     inkscape:window-width="1236"
     inkscape:window-height="755"
     inkscape:window-x="44"
     inkscape:window-y="1"
     inkscape:window-maximized="1"
     units="px"
     fit-margin-top="0"
     fit-margin-left="0"
     fit-margin-right="0"
     fit-margin-bottom="0" />
  <metadata
     id="metadata7">
    <rdf:RDF>
      <cc:Work
         rdf:about="">
        <dc:format>image/svg+xml</dc:format>
        <dc:type
           rdf:resource="http://purl.org/dc/dcmitype/StillImage" />
        <dc:title></dc:title>
      </cc:Work>
    </rdf:RDF>
  </metadata>
  <g
     inkscape:groupmode="layer"
     id="layer2"
     inkscape:label="Layer 2"
     style="display:inline">
    <rect
       style="fill:#292932;fill-opacity:1"
       id="rect4164"
       width="307.0864"
       height="304.05591"
       x="-1.0101528"
       y="-0.015306842" />
  </g>
  <g
     inkscape:label="Layer 1"
     inkscape:groupmode="layer"
     id="layer1"
     transform="translate(-189.90866,-679.63126)"
     style="display:inline">
    <g
       transform="translate(5.0304557,437.33514)"
       style="font-style:normal;font-variant:normal;font-weight:normal;font-stretch:normal;font-size:80px;line-height:125%;font-family:'M50_VANILLA ICE';-inkscape-font-specification:'M50_VANILLA ICE, Normal';text-align:start;letter-spacing:0px;word-spacing:0px;writing-mode:lr-tb;text-anchor:start;fill:#3b90e0;fill-opacity:1;stroke:none;stroke-width:1px;stroke-linecap:butt;stroke-linejoin:miter;stroke-opacity:1"
       id="flowRoot3336">
      <path
         d="m 226.27344,428.71484 0,-60 10,0 0,-10 20,0 0,10 10,0 0,30 10,0 0,-40 20,0 0,60 -10,0 0,10 -20,0 0,-10 -10,0 0,-30 -10,0 0,40 -20,0 z"
         style="font-style:normal;font-variant:normal;font-weight:normal;font-stretch:normal;font-size:80px;line-height:125%;font-family:'M50_VANILLA ICE';-inkscape-font-specification:'M50_VANILLA ICE, Normal';text-align:start;writing-mode:lr-tb;text-anchor:start;fill:#3b90e0;fill-opacity:1"
         id="path4942"
         inkscape:connector-curvature="0" />
      <path
         d="m 306.27344,418.71484 0,-50 10,0 0,-10 50,0 0,10 10,0 0,40 -10,0 0,10 -10,0 0,10 -40,0 0,-10 -10,0 z m 60,10 0,-10 10,0 0,10 -10,0 z m -10,-50 -30,0 0,30 20,0 0,-10 10,0 0,-20 z"
         style="font-style:normal;font-variant:normal;font-weight:normal;font-stretch:normal;font-size:80px;line-height:125%;font-family:'M50_VANILLA ICE';-inkscape-font-specification:'M50_VANILLA ICE, Normal';text-align:start;writing-mode:lr-tb;text-anchor:start;fill:#3b90e0;fill-opacity:1"
         id="path4944"
         inkscape:connector-curvature="0" />
      <path
         d="m 386.27344,418.71484 0,-50 10,0 0,-10 50,0 0,10 10,0 0,40 -10,0 0,10 -10,0 0,10 -40,0 0,-10 -10,0 z m 60,10 0,-10 10,0 0,10 -10,0 z m -10,-50 -30,0 0,30 20,0 0,-10 10,0 0,-20 z"
         style="font-style:normal;font-variant:normal;font-weight:normal;font-stretch:normal;font-size:80px;line-height:125%;font-family:'M50_VANILLA ICE';-inkscape-font-specification:'M50_VANILLA ICE, Normal';text-align:start;writing-mode:lr-tb;text-anchor:start;fill:#3b90e0;fill-opacity:1"
         id="path4946"
         inkscape:connector-curvature="0" />
    </g>
    <g
       transform="translate(-0.4735646,432.95153)"
       style="font-style:normal;font-variant:normal;font-weight:normal;font-stretch:normal;font-size:80px;line-height:125%;font-family:'M50_VANILLA ICE';-inkscape-font-specification:'M50_VANILLA ICE, Normal';text-align:start;letter-spacing:0px;word-spacing:0px;writing-mode:lr-tb;text-anchor:start;fill:#ffffff;fill-opacity:1;stroke:none;stroke-width:1px;stroke-linecap:butt;stroke-linejoin:miter;stroke-opacity:1"
       id="flowRoot3336-1">
      <path
         d="m 226.27344,428.71484 0,-60 10,0 0,-10 20,0 0,10 10,0 0,30 10,0 0,-40 20,0 0,60 -10,0 0,10 -20,0 0,-10 -10,0 0,-30 -10,0 0,40 -20,0 z"
         style="font-style:normal;font-variant:normal;font-weight:normal;font-stretch:normal;font-size:80px;line-height:125%;font-family:'M50_VANILLA ICE';-inkscape-font-specification:'M50_VANILLA ICE, Normal';text-align:start;writing-mode:lr-tb;text-anchor:start;fill:#ffffff"
         id="path4935"
         inkscape:connector-curvature="0" />
      <path
         d="m 306.27344,418.71484 0,-50 10,0 0,-10 50,0 0,10 10,0 0,40 -10,0 0,10 -10,0 0,10 -40,0 0,-10 -10,0 z m 60,10 0,-10 10,0 0,10 -10,0 z m -10,-50 -30,0 0,30 20,0 0,-10 10,0 0,-20 z"
         style="font-style:normal;font-variant:normal;font-weight:normal;font-stretch:normal;font-size:80px;line-height:125%;font-family:'M50_VANILLA ICE';-inkscape-font-specification:'M50_VANILLA ICE, Normal';text-align:start;writing-mode:lr-tb;text-anchor:start;fill:#ffffff"
         id="path4937"
         inkscape:connector-curvature="0" />
      <path
         d="m 386.27344,418.71484 0,-50 10,0 0,-10 50,0 0,10 10,0 0,40 -10,0 0,10 -10,0 0,10 -40,0 0,-10 -10,0 z m 60,10 0,-10 10,0 0,10 -10,0 z m -10,-50 -30,0 0,30 20,0 0,-10 10,0 0,-20 z"
         style="font-style:normal;font-variant:normal;font-weight:normal;font-stretch:normal;font-size:80px;line-height:125%;font-family:'M50_VANILLA ICE';-inkscape-font-specification:'M50_VANILLA ICE, Normal';text-align:start;writing-mode:lr-tb;text-anchor:start;fill:#ffffff"
         id="path4939"
         inkscape:connector-curvature="0" />
    </g>
  </g>
</svg>
